<?xml version="1.0" encoding="UTF-8" standalone="no"?><!DOCTYPE svg PUBLIC "-//W3C//DTD SVG 1.1//EN" "http://www.w3.org/Graphics/SVG/1.1/DTD/svg11.dtd"><svg width="100%" height="100%" viewBox="0 0 250 250" version="1.1" xmlns="http://www.w3.org/2000/svg" xmlns:xlink="http://www.w3.org/1999/xlink" xml:space="preserve" xmlns:serif="http://www.serif.com/" style="fill-rule:evenodd;clip-rule:evenodd;stroke-linejoin:round;stroke-miterlimit:2;"><path d="M132.496,111.916l0,-51.043l24.445,-24.553c2.961,-2.961 2.934,-7.727 -0,-10.661c-2.961,-2.961 -7.727,-2.935 -10.661,-0l-13.784,13.811l0,-27.649c0,-4.065 -3.365,-7.484 -7.538,-7.484c-4.2,-0 -7.538,3.365 -7.538,7.484l-0,27.918l-13.784,-13.784c-2.934,-2.934 -7.7,-2.961 -10.661,0c-2.934,2.935 -2.961,7.7 0,10.661l24.445,24.553l-0,50.774l-44.205,-25.522l-9.019,-33.463c-1.077,-4.039 -5.223,-6.408 -9.234,-5.331c-4.039,1.077 -6.408,5.223 -5.331,9.234l5.034,18.845l-23.933,-13.837c-3.527,-2.046 -8.184,-0.808 -10.257,2.799c-2.1,3.635 -0.862,8.212 2.719,10.285l24.176,13.972l-18.845,5.034c-4.012,1.077 -6.408,5.196 -5.331,9.234c1.077,4.012 5.196,6.408 9.234,5.331l33.491,-8.911l43.963,25.387l-44.206,25.522l-33.49,-8.911c-4.038,-1.077 -8.157,1.319 -9.234,5.33c-1.077,4.038 1.319,8.157 5.33,9.234l18.845,5.035l-23.933,13.837c-3.527,2.046 -4.792,6.677 -2.719,10.285c2.1,3.634 6.677,4.845 10.257,2.799l24.176,-13.972l-5.035,18.845c-1.076,4.012 1.293,8.157 5.331,9.234c4.011,1.077 8.157,-1.292 9.234,-5.33l9.046,-33.464l43.963,-25.387l-0,51.313l-24.445,25.037c-2.961,2.961 -2.934,7.726 -0,10.661c2.961,2.961 7.726,2.934 10.661,-0l13.784,-13.784l-0,26.895c-0,4.065 3.365,7.484 7.538,7.484c4.2,0 7.538,-3.365 7.538,-7.484l0,-27.191l13.784,13.784c2.934,2.934 7.7,2.961 10.661,-0c2.934,-2.935 2.961,-7.7 -0,-10.661l-24.445,-25.037l0,-51.017l44.448,25.656l9.449,33.679c1.077,4.039 5.223,6.408 9.234,5.331c4.039,-1.077 6.408,-5.223 5.331,-9.234l-5.034,-18.845l23.314,13.46c3.526,2.046 8.184,0.808 10.257,-2.799c2.1,-3.635 0.861,-8.212 -2.719,-10.284l-23.53,-13.596l18.845,-5.034c4.012,-1.077 6.408,-5.196 5.331,-9.234c-1.077,-4.012 -5.196,-6.408 -9.234,-5.331l-33.895,8.669l-44.205,-25.522l44.448,-25.656l33.894,8.668c4.038,1.077 8.157,-1.319 9.234,-5.33c1.077,-4.038 -1.319,-8.157 -5.33,-9.234l-18.845,-5.034l23.314,-13.461c3.526,-2.046 4.792,-6.677 2.719,-10.284c-2.1,-3.635 -6.677,-4.846 -10.257,-2.8l-23.53,13.595l5.034,-18.845c1.077,-4.011 -1.292,-8.157 -5.33,-9.234c-4.011,-1.077 -8.157,1.292 -9.234,5.33l-9.45,33.679l-44.286,25.549Z" style="fill:#513e3e;fill-rule:nonzero;"/></svg>