<?xml version="1.0" encoding="UTF-8" standalone="no"?>
<!DOCTYPE svg PUBLIC "-//W3C//DTD SVG 1.1//EN" "http://www.w3.org/Graphics/SVG/1.1/DTD/svg11.dtd">
<svg width="100%" height="100%" viewBox="0 0 511 484" version="1.1" xmlns="http://www.w3.org/2000/svg" xmlns:xlink="http://www.w3.org/1999/xlink" xml:space="preserve" xmlns:serif="http://www.serif.com/" style="fill-rule:evenodd;clip-rule:evenodd;stroke-linejoin:round;stroke-miterlimit:2;">
    <g id="Sun" transform="matrix(2.34886,0,0,2.34886,-226.345,-158.759)">
        <g transform="matrix(1,0,0,1.01961,-0.789762,-1.81922)">
            <path d="M216.152,80.139L216.152,94.088C216.152,99.621 211.572,104.114 205.93,104.114C200.288,104.114 195.708,99.621 195.708,94.088L195.708,80.139C195.708,74.606 200.288,70.114 205.93,70.114C211.572,70.114 216.152,74.606 216.152,80.139Z"/>
        </g>
        <g transform="matrix(0.707107,-0.707107,0.720972,0.720972,-62.4063,194.301)">
            <path d="M216.152,80.139L216.152,94.088C216.152,99.621 211.572,104.114 205.93,104.114C200.288,104.114 195.708,99.621 195.708,94.088L195.708,80.139C195.708,74.606 200.288,70.114 205.93,70.114C211.572,70.114 216.152,74.606 216.152,80.139Z"/>
        </g>
        <g transform="matrix(0,-1,1.01961,0,32.7024,376.549)">
            <path d="M216.152,80.139L216.152,94.088C216.152,99.621 211.572,104.114 205.93,104.114C200.288,104.114 195.708,99.621 195.708,94.088L195.708,80.139C195.708,74.606 200.288,70.114 205.93,70.114C211.572,70.114 216.152,74.606 216.152,80.139Z"/>
        </g>
        <g transform="matrix(-0.707107,-0.707107,0.720972,-0.720972,228.823,438.165)">
            <path d="M216.152,80.139L216.152,94.088C216.152,99.621 211.572,104.114 205.93,104.114C200.288,104.114 195.708,99.621 195.708,94.088L195.708,80.139C195.708,74.606 200.288,70.114 205.93,70.114C211.572,70.114 216.152,74.606 216.152,80.139Z"/>
        </g>
        <g transform="matrix(-1,1.22465e-16,-1.24866e-16,-1.01961,411.07,343.057)">
            <path d="M216.152,80.139L216.152,94.088C216.152,99.621 211.572,104.114 205.93,104.114C200.288,104.114 195.708,99.621 195.708,94.088L195.708,80.139C195.708,74.606 200.288,70.114 205.93,70.114C211.572,70.114 216.152,74.606 216.152,80.139Z"/>
        </g>
        <g transform="matrix(0.707107,0.707107,-0.720972,0.720972,181.458,-96.9279)">
            <path d="M216.152,80.139L216.152,94.088C216.152,99.621 211.572,104.114 205.93,104.114C200.288,104.114 195.708,99.621 195.708,94.088L195.708,80.139C195.708,74.606 200.288,70.114 205.93,70.114C211.572,70.114 216.152,74.606 216.152,80.139Z"/>
        </g>
        <g transform="matrix(0,1,-1.01961,0,377.578,-35.3114)">
            <path d="M216.152,80.139L216.152,94.088C216.152,99.621 211.572,104.114 205.93,104.114C200.288,104.114 195.708,99.621 195.708,94.088L195.708,80.139C195.708,74.606 200.288,70.114 205.93,70.114C211.572,70.114 216.152,74.606 216.152,80.139Z"/>
        </g>
        <g transform="matrix(-0.707107,0.707107,-0.720972,-0.720972,472.687,146.936)">
            <path d="M216.152,80.139L216.152,94.088C216.152,99.621 211.572,104.114 205.93,104.114C200.288,104.114 195.708,99.621 195.708,94.088L195.708,80.139C195.708,74.606 200.288,70.114 205.93,70.114C211.572,70.114 216.152,74.606 216.152,80.139Z"/>
        </g>
        <g transform="matrix(1,0,0,1,-3.93284,0)">
            <circle cx="209.073" cy="170.619" r="46.427"/>
        </g>
    </g>
</svg>
