<?xml version="1.0" encoding="UTF-8" standalone="no"?><!DOCTYPE svg PUBLIC "-//W3C//DTD SVG 1.1//EN" "http://www.w3.org/Graphics/SVG/1.1/DTD/svg11.dtd"><svg width="100%" height="100%" viewBox="0 0 250 250" version="1.1" xmlns="http://www.w3.org/2000/svg" xmlns:xlink="http://www.w3.org/1999/xlink" xml:space="preserve" xmlns:serif="http://www.serif.com/" style="fill-rule:evenodd;clip-rule:evenodd;stroke-linejoin:round;stroke-miterlimit:2;"><g><path d="M73.803,15.862c-2.174,-2.795 -1.668,-6.829 1.127,-9.003c2.796,-2.173 6.83,-1.668 9.003,1.128c0,-0 47.034,60.311 0.925,126.265c-16.253,23.248 -21.392,42.415 -20.824,57.752c0.823,22.229 13.665,35.928 19.331,41.495c2.526,2.481 2.562,6.547 0.08,9.073c-2.482,2.526 -6.547,2.562 -9.073,0.08c-5.691,-5.591 -17.267,-18.051 -21.56,-37.544c-4.197,-19.056 -1.601,-45.123 21.529,-78.208c40.548,-57.999 -0.538,-111.038 -0.538,-111.038Z" style="fill:#513e3e;"/><path d="M117.68,15.862c-2.173,-2.795 -1.668,-6.829 1.127,-9.003c2.796,-2.173 6.83,-1.668 9.004,1.128c-0,-0 47.034,60.311 0.924,126.265c-16.253,23.248 -21.391,42.415 -20.823,57.752c0.823,22.229 13.664,35.928 19.33,41.495c2.526,2.481 2.562,6.547 0.08,9.073c-2.482,2.526 -6.547,2.562 -9.073,0.08c-5.691,-5.591 -17.267,-18.051 -21.56,-37.544c-4.197,-19.056 -1.601,-45.123 21.529,-78.208c40.548,-57.999 -0.538,-111.038 -0.538,-111.038Z" style="fill:#513e3e;"/><path d="M161.557,15.862c-2.173,-2.795 -1.668,-6.829 1.128,-9.003c2.795,-2.173 6.83,-1.668 9.003,1.128c0,-0 47.034,60.311 0.924,126.265c-16.253,23.248 -21.391,42.415 -20.823,57.752c0.823,22.229 13.665,35.928 19.33,41.495c2.526,2.481 2.562,6.547 0.08,9.073c-2.481,2.526 -6.547,2.562 -9.073,0.08c-5.69,-5.591 -17.267,-18.051 -21.56,-37.544c-4.196,-19.056 -1.601,-45.123 21.53,-78.208c40.548,-57.999 -0.539,-111.038 -0.539,-111.038Z" style="fill:#513e3e;"/></g></svg>